<svg xmlns="http://www.w3.org/2000/svg" viewBox="0 0 100 100" style="width:0; height:0; position:absolute;" aria-hidden="true"><style xmlns="http://www.w3.org/1999/xhtml">
.fragment_use {
  display: none;
}
.fragment_use:target {
  display: block;
}</style><symbol viewBox="0 0 71 100" id="icn-file"><path stroke="currentColor" d="M60 85h-50.8v-70h28.7l22 22z"/><path stroke="currentColor" stroke-linejoin="round" stroke-miterlimit="3" d="M60 37h-22v-22z"/></symbol><symbol viewBox="0 0 86 100" id="icn-copy"><path stroke="currentColor" d="M75.3 85h-47v-62.5h25l22 22zm-66 -5v-75h40"/><path stroke="currentColor" stroke-linejoin="round" stroke-miterlimit="3" d="M75.3 44.5h-22v-22z"/></symbol><symbol viewBox="0 0 100 100" id="icn-calendar"><path stroke="currentColor" stroke-linejoin="round" d="M10 28h80v57h-80z"/><path stroke="currentColor" stroke-linecap="round" d="M30 28.6v-18.6m40 18.6v-18.6m-60 27h80"/></symbol><symbol viewBox="0 0 80 100" id="icn-map-marker"><path stroke="currentColor" d="M70 40.6c0 26.6 -30 49.4 -30 49.4s-30 -22.8 -30 -49.4c0 -16.9 10.9 -30.6 30 -30.6s30 13.7 30 30.6z"/><path stroke="currentColor" stroke-linecap="round" stroke-linejoin="round" d="M40 43h0.4m2.6 0a3 3 0 1 1 -6 0a3 3 0 1 1 6 0"/></symbol><symbol viewBox="0 0 82 100" id="icn-phone2"><path stroke="currentColor" stroke-linejoin="round" d="M29.6 81.4l29.4 -17l12.3 21.4c-16 9.3 -42.3 3.5 -55.1 -18.7s-4.7 -47.8 11.3 -57l12.3 21.4l-29.4 17"/></symbol><symbol viewBox="0 0 82 100" id="icn-phone-alt"><path stroke="currentColor" stroke-linejoin="round" d="M29.6 81.4l23.4 -13.5l18.3 17.9c-16 9.3 -42.3 3.5 -55.1 -18.7c-12.7 -22.2 -4.6 -47.8 11.5 -57.1l7 24.5l-24.1 13.9"/></symbol><symbol viewBox="0 0 100 100" id="icn-envelope"><path stroke="currentColor" stroke-linejoin="round" d="M10 20h80v65h-80z"/><path stroke="currentColor" d="M10 36.7l40 20.3l40 -20.3"/></symbol><symbol viewBox="0 0 85 100" id="icn-user"><path stroke="currentColor" d="M10 90c0 -17.7 14.4 -32.1 32.1 -32.1s32.1 14.4 32.1 32.1m-16.1 -64a16 16 0 1 1 -32 0a16 16 0 1 1 32 0"/></symbol><symbol viewBox="0 0 95 100" id="icn-search"><path stroke="currentColor" d="M40 75c-16.6 0 -30 -13.4 -30 -30s13.4 -30 30 -30s30 13.4 30 30s-13.4 30 -30 30zm21.2 -8.8l23.8 23.8"/></symbol><symbol viewBox="0 0 72 100" id="icn-female"><path stroke="currentColor" d="M62 41a26 26 0 1 1 -52 0a26 26 0 1 1 52 0m-26 26v33m-15.7 -15h31.5"/></symbol><symbol viewBox="0 0 87 100" id="icn-male"><path stroke="currentColor" d="M62 64a26 26 0 1 1 -52 0a26 26 0 1 1 52 0m-7.6 -18.4l22.6 -22.6m-27 0h27v27"/></symbol><symbol viewBox="0 0 95 100" id="icn-plus"><path stroke="currentColor" d="M47.5 15v75m37.5 -37.5h-75"/></symbol><symbol viewBox="0 0 120 100" id="icn-navicon"><path stroke="currentColor" d="M110 50h-100m100 -35h-100m100 70h-100"/></symbol><symbol viewBox="0 0 100 100" id="icn-close"><path stroke="currentColor" d="M90 10l-80 80m80 0l-80 -80"/></symbol><symbol viewBox="0 0 100 100" id="icn-arrow-right"><path stroke="currentColor" d="M90 55h-80m40 -40l40 40l-40 40"/></symbol><symbol viewBox="0 0 100 100" id="icn-arrow-left"><path stroke="currentColor" d="M10 55h80m-40 40l-40 -40l40 -40"/></symbol><symbol viewBox="0 0 100 100" id="icn-arrow-up"><path stroke="currentColor" d="M50 15v80m-40 -40l40 -40l40 40"/></symbol><symbol viewBox="0 0 100 100" id="icn-arrow-down"><path stroke="currentColor" d="M50 90v-80m40 40l-40 40l-40 -40"/></symbol><symbol viewBox="0 0 80 100" id="icn-arrow-up-right"><path stroke="currentColor" d="M70 30l-60 60m0 -60h60v60"/></symbol><symbol viewBox="0 0 86 100" id="icn-new-tab"><path stroke="currentColor" d="M76 20l-45.5 45.5m0.8 -45.5h44.7v44.7m0 20.1h-66v-64.9"/></symbol><symbol viewBox="0 0 80 100" id="icn-arrow-up-left"><path stroke="currentColor" d="M10 30l60 60m-60 0v-60h60"/></symbol><symbol viewBox="0 0 100 100" id="icn-download"><path stroke="currentColor" d="M50 67.3v-62.3m-40 80h80m-0.4 -53.7l-39.6 36l-39.6 -36"/></symbol><symbol viewBox="0 0 91 100" id="icn-chevron-double-down"><path stroke="currentColor" d="M79.5 51.8l-35.2 35.2l-35.2 -35.2m70.4 -39.8l-35.2 35.2l-35.2 -35.2"/></symbol><symbol viewBox="0 0 100 100" id="icn-clock"><path stroke="currentColor" d="M90 50a40 40 0 1 1 -80 0a40 40 0 1 1 80 0m-40 -21.9v21.9l14.8 14.8"/></symbol><symbol viewBox="0 0 100 100" id="icn-question"><path stroke="currentColor" d="M89.7 50a40 40 0 1 1 -80 0a40 40 0 1 1 80 0m-50.1 -11.1c0 -5.6 4.5 -10.1 10.1 -10.1s10.1 4.5 10.1 10.1s-4.5 10.1 -10.1 10.1v10.2"/><path stroke="currentColor" stroke-linecap="round" stroke-linejoin="round" d="M49.7 70.1l0 0"/><path stroke="currentColor" d="M52.1 70.1a2.4 2.4 0 1 1 -4.9 0a2.4 2.4 0 1 1 4.9 0"/></symbol><symbol viewBox="0 0 112 100" id="icn-reload"><path stroke="currentColor" d="M9.2 90v-30.2h28.3m58.5 -4.9c0 6.9 -3.8 16.3 -10.4 23c-7.3 7.4 -17.4 12.1 -28.6 12.1c-28 0 -37.6 -22.5 -45.3 -30.2m89.5 -49.8v30.2h-28.3m-58.7 4.9c0 -6.9 3.8 -16.3 10.4 -23c7.4 -7.4 17.4 -12.1 28.6 -12.1c28 0 37.6 22.5 45.3 30.2"/></symbol><symbol viewBox="0 0 108 100" id="icn-reload2"><path stroke="currentColor" d="M96.3 41.2c-13.4 -13.4 -22.3 -30.2 -46.5 -30.2c-22.1 0 -40 17.9 -40 40s17.9 40 40 40c11.2 0 21.3 -4.7 28.6 -12.1c5.7 -5.7 9.5 -15 9.5 -18.1m9.3 -49.2v29.6h-28.4"/></symbol><symbol viewBox="0 0 100 100" id="icn-info"><path stroke="currentColor" stroke-linecap="round" stroke-linejoin="round" d="M50.3 29l0 0"/><path stroke="currentColor" d="M89.7 50a40 40 0 1 1 -80 0a40 40 0 1 1 80 0m-50.6 18.6h24.4m-24.4 -21.4h12.1v21.4m1.5 -39.6a2.4 2.4 0 1 1 -4.9 0a2.4 2.4 0 1 1 4.9 0"/></symbol><symbol viewBox="0 0 110 100" id="icn-home"><path stroke="currentColor" d="M28.3 90v-53.5m52.8 0v53.5m-71.4 -34.4l45 -45.6l45 45.6"/></symbol><symbol viewBox="0 0 100 100" id="icn-exclamation-mark"><path stroke="currentColor" d="M89.7 50a40 40 0 1 1 -80 0a40 40 0 1 1 80 0m-40 5.6v-32.4"/><path stroke="currentColor" stroke-linecap="round" stroke-linejoin="round" d="M49.7 68.6l0 0"/><path stroke="currentColor" d="M49.7 66.2c1.3 0 2.4 1.1 2.4 2.4s-1.1 2.4 -2.4 2.4s-2.4 -1.1 -2.4 -2.4s1 -2.4 2.4 -2.4z"/></symbol><symbol viewBox="0 0 78 100" id="icn-wheelchair"><path d="M40.2 12.4a2.4 2.4 0 1 1 -4.8 0a2.4 2.4 0 1 1 4.8 0" stroke="none" fill="currentColor"/><path stroke="currentColor" d="M42 69.9c0 8.9 -7.2 16.2 -16.2 16.2c-8.9 0 -16.2 -7.2 -16.2 -16.2s7.2 -16.2 16.2 -16.2"/><path stroke="currentColor" stroke-linecap="round" d="M37.8 12.4l0 0"/><path stroke="currentColor" d="M37.8 10.2c1.3 0 2.3 1 2.3 2.3s-1 2.3 -2.3 2.3s-2.3 -1 -2.3 -2.3s1.1 -2.3 2.3 -2.3zm23.7 26.5c-2.5 2.5 -6 4.1 -9.8 4.1s-7.3 -1.6 -9.8 -4.1s-4.1 -6 -4.1 -9.8"/><path stroke="currentColor" stroke-linejoin="round" d="M67.4 90v-31.2h-29.6v-32"/></symbol><symbol viewBox="0 0 103 100" id="icn-shopping-cart"><path stroke="currentColor" stroke-linecap="round" stroke-linejoin="round" d="M29 16.4v34.4h53.5l8.8 -34.4h-82.1m19.8 34.4v16h48.8m-48.7 16.3l0 0"/><path stroke="currentColor" d="M29.1 80.7c1.3 0 2.4 1.1 2.4 2.4c0 1.4 -1.1 2.4 -2.4 2.4s-2.4 -1.1 -2.4 -2.4s1.1 -2.4 2.4 -2.4z"/><path stroke="currentColor" stroke-linecap="round" stroke-linejoin="round" d="M76.4 83.1l0 0"/><path stroke="currentColor" d="M76.4 80.7c1.3 0 2.4 1.1 2.4 2.4c0 1.4 -1.1 2.4 -2.4 2.4s-2.4 -1.1 -2.4 -2.4s1.1 -2.4 2.4 -2.4z"/></symbol><symbol viewBox="0 0 91 100" id="icn-shopping-bag"><path stroke="currentColor" stroke-linejoin="round" d="M80.5 85.2h-71l5 -57h61z"/><path stroke="currentColor" stroke-linecap="round" stroke-linejoin="round" d="M30.8 37.5v-12.7c0 -7.8 6.3 -14.1 14.1 -14.1s14.1 6.3 14.1 14.1v12.7"/></symbol><symbol viewBox="0 0 108 100" id="icn-trash"><path stroke="currentColor" stroke-linejoin="round" d="M85 19v66h-61v-66m-14 0h88m-28 0v-9h-31v9"/><path stroke="currentColor" stroke-linecap="round" stroke-linejoin="round" d="M44 35v32m21 -32v32"/></symbol><symbol viewBox="0 0 87 100" id="icn-link"><path stroke="currentColor" stroke-linecap="round" stroke-linejoin="round" d="M65.3 30.3c-7.7 -7.7 -20.3 -7.7 -28 0l-16 16c-7.7 7.7 -7.7 20.3 0 28s20.3 7.7 28 0l16 -16c7.8 -7.8 7.8 -20.3 0 -28zm-12.7 12.7l23.2 -23.2m-66.4 66.4l23.2 -23.2"/></symbol><symbol viewBox="0 0 65 100" id="icn-next-half-overlay"><path d="M9.4 50c0 24.9 20.1 45 45 45v-90c-24.9 0 -45 20.1 -45 45z" stroke="none" fill="currentColor"/><path stroke="currentColor" d="M26.9 36.3l13.7 13.7l-13.7 13.7"/></symbol><symbol viewBox="0 0 104 100" id="icn-star"><path stroke="currentColor" stroke-linecap="round" stroke-linejoin="round" d="M51.1 10l13 26.3l29.1 4.2l-21 20.5l5 28.9l-26 -13.7l-26 13.7l5 -28.9l-21 -20.5l29.1 -4.2z"/></symbol><symbol viewBox="0 0 104 100" id="icn-star_solid"><path stroke="currentColor" stroke-linecap="round" stroke-linejoin="round" d="M51.1 10l13 26.3l29.1 4.2l-21 20.5l5 28.9l-26 -13.7l-26 13.7l5 -28.9l-21 -20.5l29.1 -4.2z" fill="currentColor"/></symbol><symbol viewBox="0 0 95 100" id="icn-chevron-down"><path stroke="currentColor" d="M85 32l-37.5 37.5l-37.5 -37.5"/></symbol><symbol viewBox="0 0 95 100" id="icn-chevron-up"><path stroke="currentColor" d="M10 69.5l37.5 -37.5l37.5 37.5"/></symbol><symbol viewBox="0 0 58 100" id="icn-chevron-right"><path stroke="currentColor" d="M10 15l37.5 37.5l-37.5 37.5"/></symbol><symbol viewBox="0 0 58 100" id="icn-chevron-left"><path stroke="currentColor" d="M47.5 90l-37.5 -37.5l37.5 -37.5"/></symbol><symbol viewBox="0 0 114 100" id="icn-heart"><path stroke="currentColor" d="M103.5 33.4c0 -12.9 -10.5 -23.4 -23.5 -23.4s-23.5 10.5 -23.5 23.4c0 -12.9 -10.5 -23.4 -23.5 -23.4s-23.5 10.5 -23.5 23.4c0 26.6 47 56.6 47 56.6s47 -29.9 47 -56.6z"/></symbol><symbol viewBox="0 0 114 100" id="icn-heart_solid"><path stroke="currentColor" d="M103.7 33.4c0 -12.9 -10.5 -23.4 -23.5 -23.4s-23.5 10.5 -23.5 23.4c0 -12.9 -10.5 -23.4 -23.5 -23.4s-23.5 10.5 -23.5 23.4c0 26.6 47 56.6 47 56.6s47 -29.9 47 -56.6z" fill="currentColor"/></symbol><symbol viewBox="0 0 139 100" id="icn-youtube-solid"><path d="M126.2 24.2s-1.1 -8.2 -4.8 -11.7c-4.5 -4.8 -9.5 -4.8 -11.8 -5c-16.5 -1.2 -41.4 -1.2 -41.4 -1.2l0 0s-24.9 0 -41.5 1.2c-2.2 0.2 -7.3 0.2 -11.8 5c-3.5 3.5 -4.6 11.7 -4.6 11.7s-1.2 9.5 -1.2 19.2v8.9c0 9.6 1.2 19.2 1.2 19.2s1.1 8.2 4.6 11.8c4.5 4.6 10.5 4.5 13.1 5c9.5 0.9 40.3 1.2 40.3 1.2s24.9 -0.1 41.4 -1.2c2.3 -0.4 7.4 -0.4 12 -5c3.5 -3.7 4.6 -11.8 4.6 -11.8s1.2 -9.5 1.2 -19.2v-8.9c-0.1 -9.6 -1.3 -19.2 -1.3 -19.2zm-70.1 39v-33.3l32 16.7l-32 16.6z" stroke="none" fill="currentColor"/></symbol><symbol viewBox="0 0 61 100" id="icn-facebook"><path d="M37.5 23.2h12.8v-15.4h-12.8c-9.9 0 -17.9 8 -17.9 17.9v7.7h-10.3v15.4h10.3v41h15.3v-41h12.9l2.5 -15.4h-15.4v-7.7c0 -1.3 1.2 -2.5 2.6 -2.5l0 0z" stroke="none" fill="currentColor"/></symbol><symbol viewBox="0 0 104 100" id="icn-facebook-circle"><path d="M92.5 48.4c0 -5.8 -1.1 -11.2 -3.2 -16.2s-5.1 -9.4 -9 -13.2c-3.8 -3.9 -8.2 -6.9 -13.2 -9c-5.1 -2.2 -10.5 -3.2 -16.2 -3.2s-11.1 1.1 -16.2 3.2c-5 2.2 -9.4 5.1 -13.2 9c-3.9 3.8 -6.9 8.2 -9 13.2s-3.2 10.5 -3.2 16.2c0 5.1 0.8 9.9 2.4 14.4s4 8.5 7.1 12.2s6.6 6.7 10.6 9.2s8.4 4.2 13 5.1v-28.4h-8.1v-12.5h8.1v-10.3c0 -2.8 0.7 -5.3 2.1 -7.5s3.2 -3.9 5.3 -5.2s4.6 -2 7.3 -2h10.3v12.5h-8.1c-1.2 0 -2.2 0.4 -3 1.3c-0.9 0.8 -1.4 1.8 -1.4 2.8v8.4h12.5v12.5h-12.5v29c5.4 -0.6 10.3 -2 14.9 -4.4c4.6 -2.3 8.5 -5.3 11.9 -9.1s6 -7.9 7.9 -12.7s2.9 -9.8 2.9 -15.3z" stroke="none" fill="currentColor"/></symbol><symbol viewBox="0 0 102 100" id="icn-facebook-square"><path d="M83.6 8.4h-66.2c-4.2 0 -7.6 3.4 -7.6 7.6v66.2c0 4.2 3.4 7.6 7.6 7.6h33.1v-35.6h-10.2v-10.2h10.2v-5c0 -8.5 6.8 -15.3 15.3 -15.3h10.2v10.2h-10.2c-2.9 0 -5.1 2.3 -5.1 5.1v5h15.3l-2.5 10.2h-12.8v35.7h22.9c4.2 0 7.6 -3.4 7.6 -7.6v-66.3c0.1 -4.2 -3.4 -7.6 -7.6 -7.6z" stroke="none" fill="currentColor"/></symbol><symbol viewBox="0 0 96 100" id="icn-github-outine"><path d="M79.7 25.4c1.2 -4.7 0.8 -9.5 -1 -13.8c-0.4 -1 -1.2 -1.7 -2.2 -1.9c-1.2 -0.4 -6 -1.1 -15.3 4.7c-8 -1.8 -15.9 -1.7 -23.3 0c-9.3 -5.9 -14 -5.2 -15.3 -4.7c-1 0.3 -1.8 1 -2.2 1.9c-1.9 4.5 -2.2 9.4 -1 13.8c-3.2 4.1 -4.8 9.1 -4.8 14c0 12.7 4.9 20 12.1 24c2.6 1.4 5.4 2.4 8.2 3c-0.6 1.7 -1 3.4 -1 5.2c0 0.4 0 1 0 1.4v0.3c-3 0.6 -5.1 0.4 -6.6 -0.1c-0.8 -0.2 -1.5 -0.6 -2.1 -1c-1.5 -1 -2.5 -2.4 -3.9 -4s-3 -3.9 -5.4 -5.2c-0.7 -0.3 -1.4 -0.6 -2.1 -0.8c-1.9 -0.4 -3.8 0.7 -4.3 2.5s0.7 3.8 2.5 4.3c0.3 0.1 0.5 0.2 0.5 0.2c1 0.5 1.7 1.4 3.2 3.3c1.3 1.7 3 3.8 5.4 5.5c1.1 0.8 2.5 1.5 4 2c2.5 0.8 5.4 1 8.7 0.5v6.1c0 1.9 1.6 3.5 3.5 3.5s3.5 -1.6 3.5 -3.5v-13.8c0 -0.1 0 -0.2 0 -0.3s0 -0.5 0 -0.9c0.1 -1.9 0.8 -3.9 2.3 -5.4c0.5 -0.5 0.9 -1.2 1 -2c0.3 -1.9 -1.1 -3.7 -3 -3.9c-1.2 -0.1 -2.4 -0.3 -3.6 -0.5c-2.7 -0.5 -5.2 -1.3 -7.5 -2.5c-4.5 -2.5 -8.3 -7.3 -8.4 -17.7c0.1 -4.4 1.5 -8.1 4.3 -11.1c0.9 -1 1.2 -2.4 0.7 -3.6c-1 -2.6 -1.1 -5.5 -0.4 -8.4c1.7 0.3 4.7 1.5 9.3 4.5c0.8 0.6 1.8 0.8 2.9 0.5c7 -2 14.8 -2.1 22.6 0c0.9 0.3 1.9 0.1 2.8 -0.5c4.5 -3 7.6 -4.1 9.3 -4.5c0.7 2.7 0.5 5.6 -0.4 8.4c-0.5 1.2 -0.3 2.6 0.7 3.6c2.6 2.8 4.3 6.6 4.3 10.8c0 10.8 -3.9 15.6 -8.6 18c-2.2 1.2 -4.7 1.9 -7.4 2.4c-1.1 0.3 -2.3 0.3 -3.4 0.5c-0.7 0.1 -1.5 0.4 -2 1c-1.4 1.3 -1.5 3.6 -0.1 5c0.2 0.2 0.4 0.4 0.6 0.7c1.2 1.6 1.8 3.6 1.7 5.7c0 0.1 0 0.2 0 0.3v13.6c0 1.9 1.6 3.5 3.5 3.5s3.5 -1.6 3.5 -3.5v-13.4c0.2 -2.4 -0.2 -4.6 -1 -6.7c2.7 -0.6 5.5 -1.5 8 -2.9c7.3 -3.9 12.2 -11.4 12.2 -24.2c-0.2 -5.3 -2.1 -10.2 -5 -13.9z" stroke="none" fill="currentColor"/></symbol><symbol viewBox="0 0 105 100" id="icn-github-solid"><path d="M51.6 6.9c-23.5 0 -42.5 19 -42.5 42.5c0 18.8 12.2 34.7 29.1 40.3c2.1 0.4 2.9 -1 2.9 -2s-0.1 -4.4 -0.1 -8c-11.8 2.6 -14.3 -5 -14.3 -5c-1.9 -4.9 -4.7 -6.2 -4.7 -6.2c-3.9 -2.6 0.3 -2.5 0.3 -2.5c4.3 0.3 6.6 4.4 6.6 4.4c3.8 6.5 9.9 4.6 12.4 3.5c0.4 -2.7 1.5 -4.6 2.6 -5.7c-9.4 -1.1 -19.4 -4.7 -19.4 -21c0 -4.6 1.7 -8.4 4.4 -11.4c-0.4 -1.1 -1.8 -5.3 0.4 -11.2c0 0 3.6 -1.1 11.7 4.4c3.3 -1 7 -1.4 10.6 -1.5s7.3 0.5 10.6 1.5c8.2 -5.5 11.8 -4.4 11.8 -4.4c2.3 5.9 0.8 10.2 0.3 11.2c2.7 3 4.4 6.8 4.4 11.4c0 16.4 -9.9 20 -19.4 21c1.5 1.3 2.9 3.9 2.9 7.8c0 5.7 -0.1 10.3 -0.1 11.7c0 1.1 0.8 2.5 2.9 2c16.9 -5.6 29.1 -21.6 29.1 -40.3c0.1 -23.4 -19 -42.5 -42.5 -42.5l0 0z" stroke="none" fill="currentColor"/></symbol><symbol viewBox="0 0 105 100" id="icn-instagram-outline"><path d="M32.6 6.3c-6.3 0 -12 2.6 -16.2 6.7s-6.7 9.9 -6.7 16.2v38.2c0 6.3 2.6 12 6.7 16.2c4.1 4.2 9.9 6.7 16.2 6.7h38.2c6.3 0 12 -2.6 16.2 -6.7c4.2 -4.1 6.7 -9.9 6.7 -16.2v-38.2c0 -6.3 -2.6 -12 -6.7 -16.2s-9.9 -6.7 -16.2 -6.7h-38.2zm0 7.6h38.2c4.2 0 8 1.7 10.8 4.5s4.5 6.6 4.5 10.8v38.2c0 4.2 -1.7 8 -4.5 10.8s-6.6 4.5 -10.8 4.5h-38.2c-4.2 0 -8 -1.7 -10.8 -4.5s-4.5 -6.6 -4.5 -10.8v-38.2c0 -4.2 1.7 -8 4.5 -10.8s6.6 -4.5 10.8 -4.5zm38.2 31.4c-0.6 -3.7 -2.2 -7.1 -4.6 -9.8c-2.9 -3.2 -6.9 -5.5 -11.6 -6.3c-1.7 -0.2 -3.6 -0.3 -5.6 0c-5.2 0.8 -9.5 3.6 -12.5 7.5s-4.3 9 -3.5 14.2s3.6 9.6 7.5 12.5c3.9 3 8.9 4.3 14.1 3.5c5.3 -0.8 9.6 -3.6 12.5 -7.5s4.5 -8.9 3.7 -14.1zm-7.6 1.2c0.5 3.1 -0.4 6.1 -2.1 8.5s-4.4 4 -7.5 4.5c-3.2 0.5 -6.1 -0.4 -8.5 -2.1s-4 -4.4 -4.5 -7.5s0.4 -6.1 2.1 -8.5s4.4 -4.1 7.5 -4.5c1.2 -0.2 2.4 -0.2 3.3 0c2.9 0.4 5.3 1.7 7 3.7c1.4 1.6 2.4 3.6 2.7 5.9zm9.5 -15.4c2.1 0 3.8 -1.7 3.8 -3.8s-1.7 -3.8 -3.8 -3.8s-3.8 1.7 -3.8 3.8s1.7 3.8 3.8 3.8z" stroke="none" fill="currentColor"/></symbol><symbol viewBox="0 0 98 100" id="icn-stackoverflow"><path d="M86.2 56.2v28.9h-77v-28.9h9.6v19.2h57.7v-19.2h9.7zm-62.5 4.8h48.1v9.6h-48.1v-9.6zm1.1 -10.5l2.1 -9.4l47 10.4l-2.1 9.4l-47 -10.4zm5.5 -19.2l4 -8.7l43.6 20.3l-4 8.7l-43.6 -20.3zm53.5 3.9l-5.9 7.6l-38.1 -29.2l4.2 -5.6h4.4l35.4 27.2z" stroke="none" fill="currentColor"/></symbol><symbol viewBox="0 0 133 100" id="icn-youtube-outline"><path d="M110.4 24.3c1.3 7.3 2 15.5 2 24c0.1 7.3 -0.6 15.4 -2 23.6c-0.4 1.1 -0.7 1.9 -1.3 2.7c-1.1 1.5 -2.7 2.7 -4.5 3.2c-2.8 0.8 -10.2 1.3 -18.2 1.6c-10.6 0.4 -21 0.4 -21 0.4s-10.4 0 -21 -0.4c-8 -0.4 -15.4 -0.8 -18.1 -1.6c-0.9 -0.2 -1.9 -0.6 -2.7 -1.2c-1.4 -1.1 -2.6 -2.6 -3.2 -4.3c-1.3 -7.2 -2 -15.5 -2 -24c-0.1 -7.2 0.6 -15.4 2 -23.7c0.4 -0.9 0.7 -1.9 1.3 -2.7c1.1 -1.5 2.7 -2.7 4.5 -3.2c2.8 -0.7 10.2 -1.3 18.2 -1.6c10.6 -0.4 21 -0.4 21 -0.4s10.4 0 21 0.4c8 0.4 15.4 0.8 18.1 1.4c1.1 0.4 2 0.8 2.8 1.4c1.4 1.1 2.5 2.7 3 4.6v-0.2zm9.1 -2.1c-0.9 -4.1 -3.3 -7.5 -6.4 -9.8c-1.8 -1.3 -3.8 -2.2 -5.9 -2.9c-4.2 -0.9 -12.7 -1.5 -20.4 -1.8c-10.6 -0.4 -21.2 -0.4 -21.2 -0.4s-10.7 0 -21.3 0.4c-7.6 0.4 -16.2 0.8 -20.2 2s-7.5 3.6 -9.7 6.8c-1.3 1.8 -2.2 3.8 -2.7 5.9c-0.1 0.1 -0.1 0.2 -0.1 0.4c-1.6 8.9 -2.3 17.8 -2.2 25.8c0 9 0.7 17.9 2.2 25.8c0 0.1 0.1 0.2 0.1 0.4c1.2 4.1 3.6 7.4 6.8 9.6c1.6 1.2 3.5 2.1 5.5 2.7c4.1 1.1 12.7 1.5 20.3 1.9c10.7 0.4 21.3 0.4 21.3 0.4s10.7 0 21.3 -0.4c7.6 -0.4 16.2 -0.8 20.2 -1.9c4.1 -1.2 7.5 -3.6 9.7 -6.8c1.3 -1.9 2.2 -3.9 2.7 -6c0.1 -0.1 0.1 -0.2 0.1 -0.4c1.6 -8.8 2.3 -17.6 2.2 -25.4c0 -9 -0.7 -18.1 -2.2 -25.9c0 -0.2 0 -0.3 -0.1 -0.4l0 0zm-59.8 33.4v-14.5l12.8 7.3l-12.8 7.2zm-2.4 12.2l27 -15.4c2.2 -1.3 3 -4.2 1.8 -6.4c-0.5 -0.7 -1.1 -1.3 -1.8 -1.8l-27 -15.4c-2.2 -1.3 -5.2 -0.5 -6.4 1.8c-0.4 0.8 -0.6 1.6 -0.6 2.3v30.7c0 2.6 2.1 4.7 4.7 4.7c0.8 0.1 1.6 -0.1 2.3 -0.5z" stroke="none" fill="currentColor"/></symbol><symbol viewBox="0 0 65 100" id="icn-next-half-circle"><path d="M10 50c0 24.9 20.1 45 45 45v-90c-24.9 0 -45 20.1 -45 45zm21 17.2l-7.1 -7.1l10.2 -10.1l-10.1 -10.1l7.1 -7.1l17.1 17.2l-17.2 17.2z" stroke="none" fill="currentColor"/></symbol><symbol viewBox="0 0 65 100" id="icn-prev-half-circle"><path d="M54.3 50c0 -24.9 -20.1 -45 -45 -45v90c24.9 0 45 -20.1 45 -45zm-21 -17.2l7.1 7.1l-10.2 10.1l10.1 10.1l-7.1 7.1l-17.1 -17.2l17.2 -17.2z" stroke="none" fill="currentColor"/></symbol><symbol viewBox="0 0 94 100" id="icn-filter"><path stroke="currentColor" stroke-linecap="round" stroke-linejoin="round" d="M82.8 16.5h-73.6l26.9 40.4v24.8l19.8 7.7v-32.6z"/></symbol><symbol viewBox="0 0 100 100" id="icn-print"><path stroke="currentColor" stroke-linecap="round" stroke-linejoin="round" d="M69 76.6h19.8v-34.3c0 -5.1 -4.2 -9.4 -9.4 -9.4h-60.6c-5.1 0 -9.4 4.2 -9.4 9.4v34.3h19.8m0.2 -43.6v-7.4c0 -5.1 4.2 -9.4 9.4 -9.4h21c5.1 0 9.4 4.2 9.4 9.4v7.4m-39.8 21.5h39.7v35.5h-39.7v-35.5z"/></symbol><g><use class="fragment_use" href="#icn-file" id="frag_icn-file" fill="none" stroke-width="10"/><use class="fragment_use" href="#icn-copy" id="frag_icn-copy" fill="none" stroke-width="10"/><use class="fragment_use" href="#icn-calendar" id="frag_icn-calendar" fill="none" stroke-width="10"/><use class="fragment_use" href="#icn-map-marker" id="frag_icn-map-marker" fill="none" stroke-width="10"/><use class="fragment_use" href="#icn-phone2" id="frag_icn-phone2" fill="none" stroke-width="10"/><use class="fragment_use" href="#icn-phone-alt" id="frag_icn-phone-alt" fill="none" stroke-width="10"/><use class="fragment_use" href="#icn-envelope" id="frag_icn-envelope" fill="none" stroke-width="10"/><use class="fragment_use" href="#icn-user" id="frag_icn-user" fill="none" stroke-width="10"/><use class="fragment_use" href="#icn-search" id="frag_icn-search" fill="none" stroke-width="10"/><use class="fragment_use" href="#icn-female" id="frag_icn-female" fill="none" stroke-width="10"/><use class="fragment_use" href="#icn-male" id="frag_icn-male" fill="none" stroke-width="10"/><use class="fragment_use" href="#icn-plus" id="frag_icn-plus" fill="none" stroke-width="10"/><use class="fragment_use" href="#icn-navicon" id="frag_icn-navicon" fill="none" stroke-width="10"/><use class="fragment_use" href="#icn-close" id="frag_icn-close" fill="none" stroke-width="10"/><use class="fragment_use" href="#icn-arrow-right" id="frag_icn-arrow-right" fill="none" stroke-width="10"/><use class="fragment_use" href="#icn-arrow-left" id="frag_icn-arrow-left" fill="none" stroke-width="10"/><use class="fragment_use" href="#icn-arrow-up" id="frag_icn-arrow-up" fill="none" stroke-width="10"/><use class="fragment_use" href="#icn-arrow-down" id="frag_icn-arrow-down" fill="none" stroke-width="10"/><use class="fragment_use" href="#icn-arrow-up-right" id="frag_icn-arrow-up-right" fill="none" stroke-width="10"/><use class="fragment_use" href="#icn-new-tab" id="frag_icn-new-tab" fill="none" stroke-width="10"/><use class="fragment_use" href="#icn-arrow-up-left" id="frag_icn-arrow-up-left" fill="none" stroke-width="10"/><use class="fragment_use" href="#icn-download" id="frag_icn-download" fill="none" stroke-width="10"/><use class="fragment_use" href="#icn-chevron-double-down" id="frag_icn-chevron-double-down" fill="none" stroke-width="10"/><use class="fragment_use" href="#icn-clock" id="frag_icn-clock" fill="none" stroke-width="10"/><use class="fragment_use" href="#icn-question" id="frag_icn-question" fill="none" stroke-width="10"/><use class="fragment_use" href="#icn-reload" id="frag_icn-reload" fill="none" stroke-width="10"/><use class="fragment_use" href="#icn-reload2" id="frag_icn-reload2" fill="none" stroke-width="10"/><use class="fragment_use" href="#icn-info" id="frag_icn-info" fill="none" stroke-width="10"/><use class="fragment_use" href="#icn-home" id="frag_icn-home" fill="none" stroke-width="10"/><use class="fragment_use" href="#icn-exclamation-mark" id="frag_icn-exclamation-mark" fill="none" stroke-width="10"/><use class="fragment_use" href="#icn-wheelchair" id="frag_icn-wheelchair" fill="none" stroke-width="10"/><use class="fragment_use" href="#icn-shopping-cart" id="frag_icn-shopping-cart" fill="none" stroke-width="10"/><use class="fragment_use" href="#icn-shopping-bag" id="frag_icn-shopping-bag" fill="none" stroke-width="10"/><use class="fragment_use" href="#icn-trash" id="frag_icn-trash" fill="none" stroke-width="10"/><use class="fragment_use" href="#icn-link" id="frag_icn-link" fill="none" stroke-width="10"/><use class="fragment_use" href="#icn-next-half-overlay" id="frag_icn-next-half-overlay" fill="none" stroke-width="10"/><use class="fragment_use" href="#icn-star" id="frag_icn-star" fill="none" stroke-width="10"/><use class="fragment_use" href="#icn-star_solid" id="frag_icn-star_solid" fill="none" stroke-width="10"/><use class="fragment_use" href="#icn-chevron-down" id="frag_icn-chevron-down" fill="none" stroke-width="10"/><use class="fragment_use" href="#icn-chevron-up" id="frag_icn-chevron-up" fill="none" stroke-width="10"/><use class="fragment_use" href="#icn-chevron-right" id="frag_icn-chevron-right" fill="none" stroke-width="10"/><use class="fragment_use" href="#icn-chevron-left" id="frag_icn-chevron-left" fill="none" stroke-width="10"/><use class="fragment_use" href="#icn-heart" id="frag_icn-heart" fill="none" stroke-width="10"/><use class="fragment_use" href="#icn-heart_solid" id="frag_icn-heart_solid" fill="none" stroke-width="10"/><use class="fragment_use" href="#icn-youtube-solid" id="frag_icn-youtube-solid" fill="none" stroke-width="10"/><use class="fragment_use" href="#icn-facebook" id="frag_icn-facebook" fill="none" stroke-width="10"/><use class="fragment_use" href="#icn-facebook-circle" id="frag_icn-facebook-circle" fill="none" stroke-width="10"/><use class="fragment_use" href="#icn-facebook-square" id="frag_icn-facebook-square" fill="none" stroke-width="10"/><use class="fragment_use" href="#icn-github-outine" id="frag_icn-github-outine" fill="none" stroke-width="10"/><use class="fragment_use" href="#icn-github-solid" id="frag_icn-github-solid" fill="none" stroke-width="10"/><use class="fragment_use" href="#icn-instagram-outline" id="frag_icn-instagram-outline" fill="none" stroke-width="10"/><use class="fragment_use" href="#icn-stackoverflow" id="frag_icn-stackoverflow" fill="none" stroke-width="10"/><use class="fragment_use" href="#icn-youtube-outline" id="frag_icn-youtube-outline" fill="none" stroke-width="10"/><use class="fragment_use" href="#icn-next-half-circle" id="frag_icn-next-half-circle" fill="none" stroke-width="10"/><use class="fragment_use" href="#icn-prev-half-circle" id="frag_icn-prev-half-circle" fill="none" stroke-width="10"/><use class="fragment_use" href="#icn-filter" id="frag_icn-filter" fill="none" stroke-width="10"/><use class="fragment_use" href="#icn-print" id="frag_icn-print" fill="none" stroke-width="10"/></g></svg>